<svg width="385" height="401" viewBox="0 0 385 401" fill="none" xmlns="http://www.w3.org/2000/svg">
<path d="M263.344 230.312L248.315 237.293C247.466 237.64 246.527 237.821 245.574 237.821C244.622 237.82 243.683 237.639 242.834 237.291L238.109 235.062C237.342 234.658 236.737 234.083 236.368 233.406C235.999 232.73 235.882 231.982 236.031 231.254L286.092 40.6261C286.586 39.0605 287.792 37.7018 289.472 36.8201L304.524 29.8201C305.373 29.483 306.307 29.3078 307.253 29.3081C308.2 29.3085 309.133 29.4843 309.982 29.8221L314.706 32.07C315.49 32.4613 316.108 33.0345 316.478 33.7143C316.849 34.3941 316.956 35.1484 316.784 35.8779L266.747 226.544C266.227 228.094 265.015 229.436 263.344 230.312V230.312Z" fill="#455A64"/>
<path d="M263.343 230.311L248.315 237.292C246.802 237.996 245.952 237.463 246.212 236.073L296.273 45.4456C296.769 43.8808 297.975 42.5227 299.653 41.6396L314.705 34.6396C316.218 33.9358 317.068 34.4882 316.784 35.8587L266.747 226.544C266.226 228.094 265.015 229.436 263.343 230.311V230.311Z" fill="#263238"/>
<path d="M255.338 217.859L259.786 200.843L270.042 196.087L365.027 240.303L369.462 261.473L359.23 266.228L255.338 217.859Z" fill="#37474F"/>
<path d="M359.23 266.228L255.338 217.859L259.786 200.843L354.772 245.059L359.23 266.228Z" fill="#455A64"/>
<path d="M376.211 282.834L361.159 289.815C360.314 290.162 359.379 290.343 358.43 290.343C357.481 290.342 356.546 290.161 355.701 289.813L350.977 287.584C349.315 286.706 348.145 285.339 347.718 283.776L297.454 45.4652C297.335 44.728 297.479 43.9788 297.868 43.3049C298.257 42.6309 298.876 42.0601 299.653 41.6588L314.705 34.6589C315.555 34.3114 316.494 34.1305 317.446 34.1309C318.399 34.1312 319.338 34.3128 320.187 34.6608L324.911 36.8897C326.575 37.7661 327.745 39.1337 328.17 40.6981L378.315 279.027C378.447 279.757 378.319 280.502 377.947 281.176C377.574 281.85 376.973 282.425 376.211 282.834Z" fill="#37474F"/>
<path d="M297.454 45.4652L299.341 54.489L347.599 283.814C348.019 285.375 349.18 286.742 350.835 287.622L355.559 289.87C356.408 290.208 357.342 290.383 358.288 290.384C359.234 290.384 360.168 290.209 361.017 289.872L376.046 282.872C376.823 282.47 377.443 281.899 377.836 281.226C378.229 280.553 378.379 279.804 378.268 279.065L328.406 41.5357L328.241 40.7171C327.797 39.1591 326.631 37.7967 324.982 36.9087L320.257 34.6799C319.408 34.3318 318.469 34.1503 317.517 34.1499C316.564 34.1496 315.625 34.3305 314.776 34.678L299.724 41.6588C298.938 42.056 298.308 42.6242 297.906 43.2978C297.505 43.9714 297.348 44.7228 297.454 45.4652V45.4652Z" fill="#37474F"/>
<path d="M328.217 40.7172L378.362 279.046C378.484 279.784 378.342 280.534 377.953 281.208C377.563 281.883 376.943 282.453 376.164 282.853L361.111 289.834C360.813 290.008 360.463 290.115 360.096 290.143C359.729 290.171 359.36 290.118 359.027 289.992C358.693 289.865 358.409 289.669 358.202 289.423C357.995 289.177 357.874 288.892 357.851 288.595L307.777 50.247C307.667 49.5104 307.814 48.7637 308.202 48.091C308.591 47.4184 309.205 46.8467 309.976 46.4406L325.028 39.4598C325.327 39.2994 325.673 39.205 326.031 39.1859C326.39 39.1668 326.748 39.2236 327.071 39.3509C327.393 39.4781 327.669 39.6712 327.87 39.9109C328.071 40.1507 328.191 40.4286 328.217 40.7172V40.7172Z" fill="#455A64"/>
<path opacity="0.15" d="M283.584 49.953L291.474 53.6297C293.898 54.6298 296.674 54.9331 299.341 54.4891C300.407 54.3373 301.437 54.0484 302.389 53.6335L328.382 41.5359L328.217 40.7172C327.774 39.1593 326.608 37.7968 324.958 36.9089L320.234 34.68C319.385 34.332 318.446 34.1504 317.493 34.1501C316.541 34.1497 315.602 34.3306 314.753 34.6781C315.131 33.3076 316.265 32.775 314.753 32.1273L310.029 29.9174C309.183 29.5602 308.243 29.3735 307.288 29.3731C306.334 29.3728 305.393 29.5589 304.548 29.9155L289.495 36.8963C287.815 37.7781 286.609 39.1367 286.115 40.7023L283.584 49.953Z" fill="black"/>
<path d="M274.469 35.1014C274.533 34.5372 274.786 33.9978 275.203 33.5416C275.62 33.0854 276.183 32.7298 276.833 32.5134L306.938 18.5325C308.633 17.8393 310.507 17.4783 312.408 17.479C314.308 17.4797 316.182 17.8419 317.877 18.5364L332.617 25.3946C333.252 25.6071 333.805 25.9519 334.221 26.3936C334.636 26.8353 334.897 27.3581 334.979 27.9082L334.977 33.4286C334.908 33.9867 334.651 34.519 334.235 34.9683C333.818 35.4177 333.258 35.7669 332.613 35.9786L302.508 49.9594C300.814 50.6527 298.939 51.0137 297.039 51.013C295.138 51.0123 293.264 50.65 291.57 49.9555L276.829 43.0974C276.188 42.8918 275.63 42.5489 275.213 42.1058C274.797 41.6628 274.539 41.1364 274.467 40.5838C274.444 39.651 274.469 35.9961 274.469 35.1014Z" fill="#37474F"/>
<path d="M274.469 35.1015C274.533 34.5374 274.786 33.998 275.203 33.5418C275.62 33.0855 276.183 32.7299 276.833 32.5135L297.06 23.1359L297.05 51.0236C295.14 51.0501 293.254 50.6825 291.57 49.9557L276.829 43.0975C276.188 42.8919 275.63 42.549 275.213 42.106C274.797 41.6629 274.539 41.1366 274.467 40.5839C274.444 39.6511 274.469 35.9962 274.469 35.1015Z" fill="#263238"/>
<path d="M302.392 44.477L332.497 30.4771C335.522 29.0695 335.523 26.8043 332.499 25.3945L317.759 18.5363C316.064 17.8419 314.19 17.4796 312.289 17.4789C310.389 17.4783 308.514 17.8392 306.82 18.5325L276.715 32.5133C273.714 33.9209 273.713 36.2052 276.713 37.5959L291.453 44.4731C293.151 45.1588 295.024 45.5162 296.922 45.5168C298.821 45.5175 300.694 45.1615 302.392 44.477V44.477Z" fill="#455A64"/>
<path d="M321.282 5.61235L311.124 0.792664C308.219 -0.407629 304.32 -0.0663656 300.114 2.12128C295.689 4.69829 292.081 8.08028 289.584 11.9924C287.086 15.9045 285.77 20.2363 285.741 24.6358C285.976 28.6524 287.889 31.4133 290.794 32.6326L300.976 37.4523C303.881 38.6526 307.78 38.2924 311.986 36.1238C316.413 33.5466 320.023 30.1651 322.524 26.2533C325.026 22.3416 326.347 18.0098 326.382 13.6093C326.1 9.68775 324.187 6.83168 321.282 5.61235Z" fill="#455A64"/>
<path d="M300.694 37.3571L290.725 32.6136C287.82 31.3942 286.002 28.6334 285.672 24.6357C285.584 20.7269 286.629 16.8555 288.724 13.3294L298.882 18.1491C296.787 21.6752 295.742 25.5466 295.83 29.4554C295.97 33.3578 297.907 36.0997 300.694 37.3571Z" fill="#263238"/>
<path d="M311.964 36.1237C316.391 33.5466 320.001 30.165 322.503 26.2532C325.004 22.3415 326.325 18.0097 326.36 13.6091C325.867 5.53769 318.639 2.54648 310.226 6.9218C305.798 9.49784 302.186 12.8792 299.685 16.7912C297.184 20.7031 295.863 25.0355 295.83 29.4363C296.323 37.4888 303.528 40.499 311.964 36.1237Z" fill="#37474F"/>
<path d="M304.9 35.5498C299.939 35.7574 299.137 31.2456 299.019 29.3039C299.091 25.3563 300.296 21.4758 302.539 17.9661C304.782 14.4564 308.003 11.4127 311.95 9.07329C313.531 8.1945 315.358 7.64571 317.267 7.47616C322.252 7.28756 323.054 11.7994 323.171 13.7411C323.088 17.6951 321.869 21.5798 319.609 25.0899C317.349 28.6001 314.11 31.6403 310.146 33.9717C308.563 34.8578 306.724 35.4011 304.806 35.5498L304.9 35.5498Z" fill="#263238"/>
<path d="M311.95 9.07357C313.369 8.29586 314.982 7.77677 316.676 7.55238C317.523 8.87331 317.991 10.3308 318.045 11.8169C317.968 15.7637 316.761 19.6427 314.518 23.1518C312.275 26.6608 309.057 29.7052 305.114 32.0476C303.695 32.8254 302.082 33.3444 300.388 33.5688C299.53 32.2513 299.062 30.7918 299.019 29.3043C299.091 25.3567 300.296 21.4762 302.539 17.9664C304.782 14.4567 308.003 11.413 311.95 9.07357V9.07357Z" fill="#FF725E"/>
<path d="M27.3487 339.971L12.3435 346.971C11.4985 347.318 10.5632 347.499 9.61452 347.499C8.66582 347.498 7.7307 347.317 6.88587 346.969L2.1614 344.74C1.39403 344.336 0.789001 343.761 0.420083 343.085C0.0511645 342.409 -0.0657305 341.661 0.0836238 340.932L50.0261 150.456C50.5197 148.891 51.7262 147.532 53.406 146.65L68.4584 139.65C69.3035 139.303 70.2387 139.122 71.1874 139.123C72.1361 139.123 73.0712 139.304 73.9161 139.652L78.6405 141.881C79.4079 142.285 80.0129 142.86 80.3819 143.536C80.7508 144.213 80.8677 144.96 80.7183 145.689L30.7522 336.222C30.2285 337.766 29.0168 339.101 27.3487 339.971Z" fill="#455A64"/>
<path d="M27.3489 339.971L12.3437 346.97C10.855 347.674 9.98099 347.122 10.265 345.751L60.3256 155.124C60.8214 153.559 62.0274 152.201 63.7055 151.318L78.758 144.318C80.2703 143.614 81.1206 144.166 80.8366 145.537L30.7523 336.222C30.2286 337.766 29.017 339.101 27.3489 339.971Z" fill="#263238"/>
<path d="M19.0604 327.823L23.5318 310.806L33.7873 306.051L128.749 350.267L133.207 371.437L122.952 376.192L19.0604 327.823Z" fill="#37474F"/>
<path d="M122.952 376.192L19.0604 327.823L23.5318 310.806L118.518 355.022L122.952 376.192Z" fill="#455A64"/>
<path d="M140.17 392.512L125.117 399.493C124.272 399.84 123.337 400.021 122.388 400.021C121.439 400.02 120.504 399.839 119.659 399.491L114.935 397.262C113.273 396.384 112.103 395.017 111.676 393.454L61.5306 155.105C61.3935 154.367 61.5289 153.613 61.9198 152.936C62.3107 152.259 62.9399 151.69 63.7292 151.299L78.7816 144.299C79.6309 143.952 80.57 143.771 81.5225 143.771C82.475 143.771 83.414 143.953 84.263 144.301L88.9874 146.53C90.6511 147.406 91.8214 148.774 92.2465 150.338L142.274 388.724C142.395 389.451 142.262 390.19 141.891 390.859C141.519 391.529 140.923 392.101 140.17 392.512V392.512Z" fill="#37474F"/>
<path d="M61.4596 155.143L63.3465 164.148L111.558 393.472C111.977 395.034 113.138 396.401 114.793 397.281L119.518 399.529C120.37 399.867 121.308 400.043 122.258 400.043C123.208 400.043 124.146 399.868 124.999 399.531L140.028 392.531C140.805 392.129 141.425 391.558 141.818 390.885C142.211 390.212 142.361 389.463 142.25 388.724L92.4114 151.214L92.2463 150.395C91.8096 148.835 90.6421 147.47 88.9873 146.587L84.2628 144.358C83.4138 144.01 82.4748 143.828 81.5223 143.828C80.5698 143.828 79.6307 144.008 78.7815 144.356L63.7291 151.337C62.9435 151.734 62.3135 152.302 61.9119 152.976C61.5103 153.649 61.3535 154.401 61.4596 155.143Z" fill="#37474F"/>
<path d="M92.2227 150.471L142.273 388.724C142.39 389.461 142.245 390.21 141.856 390.883C141.467 391.557 140.849 392.128 140.075 392.531L125.022 399.512C124.724 399.686 124.374 399.793 124.007 399.821C123.64 399.848 123.271 399.796 122.938 399.67C122.604 399.543 122.32 399.347 122.113 399.101C121.906 398.855 121.785 398.57 121.762 398.273L71.7117 159.982C71.5956 159.245 71.7403 158.497 72.1293 157.823C72.5183 157.15 73.1357 156.579 73.9103 156.176L88.9627 149.195C89.2639 149.019 89.6188 148.912 89.9894 148.886C90.36 148.86 90.7324 148.915 91.067 149.046C91.4017 149.177 91.6859 149.379 91.8894 149.63C92.0929 149.881 92.2081 150.172 92.2227 150.471V150.471Z" fill="#455A64"/>
<path opacity="0.15" d="M47.5896 159.631L55.4795 163.308C57.9033 164.31 60.6827 164.607 63.3468 164.148C64.4148 164.012 65.4458 163.729 66.3949 163.312L92.3881 151.214L92.223 150.395C91.7863 148.835 90.6187 147.471 88.9639 146.587L84.2394 144.358C83.3904 144.01 82.4515 143.828 81.499 143.828C80.5465 143.828 79.6074 144.009 78.7581 144.356C79.1366 142.986 80.2709 142.453 78.759 141.805L74.0346 139.576C73.1856 139.228 72.2466 139.047 71.2941 139.046C70.3416 139.046 69.4025 139.227 68.5532 139.574L53.4063 146.651C51.7216 147.528 50.5135 148.889 50.0264 150.457L47.5896 159.631Z" fill="black"/>
<path d="M38.4042 144.742C38.4566 144.188 38.6927 143.655 39.0876 143.2C39.4826 142.745 40.022 142.383 40.6496 142.153L70.7544 128.173C72.4493 127.479 74.3234 127.118 76.2243 127.119C78.1252 127.12 79.9991 127.482 81.6934 128.177L96.4338 135.035C97.0688 135.247 97.6223 135.592 98.0373 136.034C98.4523 136.475 98.714 136.998 98.7955 137.548L98.7936 143.069C98.7247 143.627 98.4682 144.159 98.0517 144.608C97.6352 145.058 97.0746 145.407 96.43 145.619L66.3252 159.599C64.6304 160.293 62.7562 160.654 60.8553 160.653C58.9545 160.652 57.0806 160.29 55.3862 159.596L40.6458 152.737C40.0272 152.518 39.4928 152.169 39.0982 151.727C38.7036 151.285 38.4632 150.766 38.4022 150.224C38.4025 149.329 38.4038 145.674 38.4042 144.742Z" fill="#37474F"/>
<path d="M38.4042 144.741C38.4567 144.188 38.6927 143.655 39.0877 143.2C39.4826 142.745 40.022 142.383 40.6496 142.153L60.877 132.757L60.8672 160.663C58.9571 160.69 57.0704 160.322 55.3863 159.596L40.6459 152.737C40.0272 152.518 39.4928 152.169 39.0982 151.727C38.7036 151.285 38.4633 150.766 38.4023 150.224C38.4026 149.329 38.4039 145.674 38.4042 144.741Z" fill="#263238"/>
<path d="M66.3979 154.136L96.5027 140.155C99.5037 138.748 99.5045 136.482 96.5045 135.073L81.7641 128.215C80.0698 127.52 78.1959 127.158 76.295 127.157C74.3941 127.156 72.52 127.517 70.8251 128.211L40.7675 142.192C37.7665 143.599 37.7657 145.883 40.7657 147.274L55.5061 154.132C57.1944 154.821 59.0597 155.179 60.9516 155.18C62.8435 155.181 64.7091 154.823 66.3979 154.136V154.136Z" fill="#455A64"/>
<path d="M85.2871 115.29L75.1295 110.471C72.2239 109.289 68.3255 109.631 64.1192 111.818C59.6973 114.393 56.0913 117.772 53.5941 121.681C51.0968 125.59 49.7786 129.918 49.7465 134.314C49.9813 138.349 51.894 141.11 54.7997 142.311L64.9573 147.13C67.8629 148.331 71.7613 147.97 75.9676 145.802C80.4028 143.23 84.0208 139.85 86.5268 135.937C89.0327 132.025 90.3556 127.69 90.3876 123.287C90.1055 119.271 88.1927 116.51 85.2871 115.29Z" fill="#455A64"/>
<path d="M64.7232 147.016L54.7546 142.292C51.8491 141.072 50.0308 138.312 49.7015 134.314C49.6162 130.407 50.6525 126.538 52.7296 123.008L62.9108 127.827C60.8157 131.353 59.7707 135.225 59.859 139.134C60.0703 143.036 62.0303 145.759 64.7232 147.016Z" fill="#263238"/>
<path d="M75.9697 145.802C80.4049 143.23 84.023 139.85 86.5289 135.937C89.0348 132.025 90.3577 127.69 90.3897 123.287C89.92 115.216 82.6914 112.225 74.2789 116.6C69.8549 119.164 66.2422 122.532 63.733 126.43C61.2238 130.328 59.8886 134.647 59.8353 139.038C60.3286 147.167 67.5335 150.177 75.9697 145.802Z" fill="#37474F"/>
<path d="M68.9057 145.228C63.9442 145.436 63.1424 140.924 63.025 138.982C63.0949 135.034 64.2988 131.153 66.5422 127.643C68.7856 124.133 72.0077 121.09 75.9557 118.752C77.5364 117.873 79.3632 117.324 81.2722 117.154C86.2574 116.966 87.0591 121.459 87.1766 123.419C87.1048 127.367 85.9002 131.247 83.6569 134.757C81.4136 138.267 78.1925 141.311 74.2458 143.65C72.6631 144.536 70.8243 145.079 68.9057 145.228V145.228Z" fill="#263238"/>
<path d="M75.9557 118.752C77.375 117.974 78.9877 117.455 80.6815 117.231C81.5287 118.552 81.9965 120.009 82.0503 121.495C81.9732 125.442 80.7662 129.321 78.5233 132.83C76.2805 136.339 73.0623 139.383 69.1196 141.726C67.7003 142.503 66.0876 143.023 64.3938 143.247C63.5242 141.933 63.055 140.471 63.025 138.982C63.0949 135.035 64.2988 131.154 66.5422 127.644C68.7856 124.134 72.0077 121.09 75.9557 118.752Z" fill="#FF725E"/>
<path d="M50.6515 186.035L368.666 38.2376L363.493 35.8373L45.4782 183.634L50.6515 186.035Z" fill="#FF725E"/>
<path opacity="0.4" d="M50.6515 186.035L368.666 38.2376L363.493 35.8373L45.4782 183.634L50.6515 186.035Z" fill="white"/>
<path d="M50.6516 186.035L66.077 260.014L384.092 112.217L368.666 38.2376L50.6516 186.035Z" fill="#FF725E"/>
<path d="M45.478 183.635L60.9035 257.614L66.0768 260.014L50.6513 186.035L45.478 183.635Z" fill="#37474F"/>
<path d="M48.7097 199.055L57.2244 239.966L62.3977 242.367L53.883 201.455L48.7097 199.055Z" fill="#FF725E"/>
<path opacity="0.2" d="M48.7097 199.055L57.2244 239.966L62.3977 242.367L53.883 201.455" fill="black"/>
<path d="M79.8347 172.473L66.0769 260.014L50.6515 186.035L79.8347 172.473Z" fill="#37474F"/>
<path d="M354.908 125.779L368.666 38.2378L384.092 112.217L354.908 125.779Z" fill="#37474F"/>
<path d="M119.458 235.21L133.239 147.65L101.646 162.315L87.8879 249.857L119.458 235.21Z" fill="#37474F"/>
<path d="M172.862 210.387L186.643 122.846L155.05 137.511L141.292 225.053L172.862 210.387Z" fill="#37474F"/>
<path d="M226.266 185.564L240.048 98.0224L208.454 112.688L194.696 200.229L226.266 185.564Z" fill="#37474F"/>
<path d="M279.67 160.76L293.451 73.1991L261.858 87.8647L248.1 175.406L279.67 160.76Z" fill="#37474F"/>
<path d="M333.098 135.937L346.856 48.3952L315.263 63.0608L301.505 150.602L333.098 135.937Z" fill="#37474F"/>
<path d="M101.645 162.315L96.4721 159.914L128.066 145.249L133.239 147.649L101.645 162.315Z" fill="#455A64"/>
<path d="M155.05 137.511L149.876 135.092L181.47 120.426L186.643 122.845L155.05 137.511Z" fill="#455A64"/>
<path d="M208.454 112.688L203.28 110.288L234.874 95.622L240.047 98.0224L208.454 112.688Z" fill="#455A64"/>
<path d="M261.858 87.865L256.685 85.4647L288.278 70.799L293.452 73.1994L261.858 87.865Z" fill="#455A64"/>
<path d="M315.262 63.0607L310.089 60.6413L341.683 45.9758L346.856 48.3951L315.262 63.0607Z" fill="#455A64"/>
<path d="M50.6514 186.035L45.4781 183.634L74.6614 170.072L79.8347 172.472L50.6514 186.035Z" fill="#455A64"/>
<path d="M53.8828 201.455L62.3974 242.367L380.412 94.5694L371.898 53.6581L53.8828 201.455Z" fill="#FF725E"/>
<path d="M105.148 212.99C105.043 213.037 104.925 213.061 104.805 213.061C104.685 213.061 104.567 213.036 104.463 212.99C104.356 212.937 104.266 212.864 104.201 212.778C104.135 212.692 104.095 212.595 104.085 212.495L99.9576 191.439C99.9155 191.188 99.9564 190.932 100.076 190.697C100.194 190.467 100.401 190.273 100.667 190.145L105.015 188.129C105.114 188.078 105.228 188.051 105.346 188.051C105.463 188.051 105.578 188.078 105.676 188.129C105.789 188.179 105.884 188.25 105.954 188.336C106.024 188.423 106.066 188.522 106.078 188.624L110.205 209.68C110.248 209.933 110.199 210.191 110.063 210.422C109.946 210.653 109.739 210.847 109.472 210.974L105.148 212.99Z" fill="#FAFAFA"/>
<path d="M131.732 200.626C131.595 200.708 131.435 200.763 131.267 200.786C131.099 200.809 130.926 200.8 130.763 200.759C130.568 200.699 130.384 200.615 130.22 200.511L120.465 192.893L122.611 203.916C122.655 204.163 122.606 204.415 122.469 204.639C122.366 204.871 122.165 205.067 121.902 205.191L117.554 207.226C117.453 207.273 117.339 207.298 117.223 207.298C117.107 207.298 116.993 207.273 116.892 207.226C116.78 207.177 116.685 207.106 116.615 207.019C116.545 206.933 116.502 206.834 116.491 206.731L112.364 185.676C112.32 185.423 112.37 185.165 112.506 184.934C112.622 184.708 112.819 184.516 113.073 184.382L116.523 182.784C116.663 182.707 116.822 182.655 116.989 182.632C117.156 182.609 117.328 182.616 117.492 182.651C117.69 182.706 117.874 182.79 118.035 182.899L127.813 190.516L125.644 179.513C125.597 179.26 125.647 179.001 125.786 178.77C125.896 178.536 126.105 178.341 126.377 178.219L130.701 176.202C130.804 176.152 130.923 176.125 131.043 176.126C131.164 176.126 131.283 176.152 131.386 176.203C131.493 176.256 131.582 176.328 131.648 176.414C131.713 176.5 131.753 176.597 131.764 176.698L135.891 197.753C135.936 198.006 135.886 198.265 135.749 198.495C135.64 198.724 135.441 198.918 135.182 199.047L131.732 200.626Z" fill="#FAFAFA"/>
<path d="M156.93 164.029C158.139 163.438 159.454 163.001 160.829 162.736C161.873 162.515 162.975 162.548 163.995 162.832C164.972 163.122 165.802 163.665 166.357 164.375C167.044 165.294 167.487 166.318 167.655 167.383C167.892 168.6 167.891 169.84 167.654 171.057C167.43 172.185 166.966 173.273 166.283 174.273C165.583 175.337 164.682 176.307 163.612 177.147C162.502 178.028 161.255 178.789 159.902 179.411L155.672 181.313L156.969 187.976C157.013 188.229 156.963 188.487 156.827 188.718C156.711 188.944 156.513 189.136 156.26 189.27L151.912 191.286C151.809 191.337 151.69 191.363 151.569 191.363C151.449 191.363 151.33 191.337 151.227 191.286C151.116 191.237 151.023 191.166 150.957 191.079C150.891 190.992 150.854 190.893 150.849 190.791L146.722 169.736C146.678 169.482 146.728 169.225 146.864 168.993C146.98 168.768 147.178 168.576 147.431 168.442L156.93 164.029ZM154.682 176.192L158.77 174.29C159.656 173.886 160.403 173.311 160.944 172.615C161.48 171.895 161.666 171.041 161.464 170.217C161.299 169.303 160.851 168.789 160.165 168.675C159.335 168.587 158.494 168.749 157.803 169.131L153.715 171.033L154.682 176.192Z" fill="#FAFAFA"/>
<path d="M180.797 152.939C182.044 152.325 183.398 151.863 184.814 151.57C185.858 151.341 186.959 151.342 188.003 151.571C188.978 151.825 189.813 152.343 190.366 153.038C191.049 153.958 191.491 154.982 191.664 156.046C191.981 157.559 191.9 159.109 191.426 160.595C190.978 161.984 190.172 163.281 189.062 164.402L194.683 170.248C194.779 170.341 194.844 170.453 194.872 170.572C194.901 170.773 194.86 170.978 194.754 171.162C194.655 171.348 194.491 171.507 194.281 171.618L189.768 173.711C189.319 173.92 188.988 173.958 188.775 173.863C188.557 173.767 188.364 173.638 188.208 173.482L183.154 168.207L180.106 169.634L181.474 176.601C181.52 176.855 181.47 177.113 181.332 177.344C181.223 177.573 181.023 177.766 180.764 177.895L176.417 179.912C176.313 179.962 176.195 179.989 176.074 179.989C175.953 179.989 175.835 179.962 175.731 179.912C175.628 179.855 175.541 179.782 175.476 179.697C175.411 179.611 175.369 179.516 175.354 179.416L171.226 158.361C171.18 158.108 171.23 157.849 171.368 157.619C171.485 157.388 171.693 157.194 171.959 157.067L180.797 152.939ZM178.997 164.551L182.731 162.801C183.612 162.426 184.366 161.884 184.929 161.221C185.207 160.883 185.398 160.503 185.492 160.105C185.585 159.706 185.579 159.296 185.473 158.899C185.308 157.985 184.883 157.49 184.198 157.433C183.359 157.418 182.534 157.61 181.835 157.984L178.101 159.715L178.997 164.551Z" fill="#FAFAFA"/>
<path d="M196.508 154.905C196.344 153.637 196.392 152.356 196.651 151.098C196.909 149.779 197.403 148.497 198.117 147.292C198.851 146.067 199.798 144.933 200.929 143.923C202.136 142.849 203.548 141.936 205.112 141.222C206.467 140.549 207.979 140.109 209.554 139.929C210.767 139.78 212.006 139.92 213.122 140.33C214.195 140.746 215.091 141.408 215.696 142.234C216.421 143.167 216.925 144.2 217.184 145.281C217.404 146.194 217.616 147.165 217.821 148.193C218.009 149.221 218.198 150.097 218.316 151.087C218.478 152.355 218.43 153.636 218.173 154.894C217.914 156.213 217.42 157.495 216.707 158.701C215.978 159.934 215.031 161.075 213.894 162.088C212.67 163.143 211.261 164.046 209.711 164.771C208.354 165.442 206.843 165.888 205.269 166.083C204.057 166.221 202.82 166.082 201.701 165.682C200.643 165.256 199.758 164.595 199.15 163.777C198.417 162.841 197.912 161.801 197.663 160.712C197.427 159.836 197.239 158.903 197.026 157.875C196.814 156.847 196.696 155.876 196.508 154.905ZM212.148 153.788C212.149 153.388 212.149 152.95 211.96 152.455C211.771 151.96 211.819 151.484 211.724 150.97C211.63 150.456 211.512 149.999 211.394 149.543L211.087 148.324C210.949 147.853 210.734 147.399 210.45 146.972C210.19 146.636 209.834 146.355 209.411 146.153C208.974 145.973 208.479 145.906 207.993 145.963C207.329 146.025 206.691 146.207 206.126 146.495C205.479 146.79 204.896 147.169 204.401 147.617C203.949 148.035 203.575 148.503 203.29 149.007C203.006 149.501 202.814 150.027 202.723 150.567C202.64 151.117 202.64 151.673 202.722 152.224C202.747 152.657 202.802 153.089 202.887 153.518C202.887 153.994 203.052 154.47 203.146 154.984C203.241 155.498 203.359 155.974 203.453 156.431C203.547 156.888 203.665 157.326 203.807 157.706C203.885 158.14 204.071 158.556 204.356 158.929C204.64 159.302 205.016 159.625 205.46 159.877C205.994 160.066 206.582 160.134 207.161 160.073C207.74 160.013 208.287 159.827 208.744 159.535C210.012 158.986 211.011 158.108 211.58 157.043C212.088 156.01 212.283 154.894 212.148 153.788V153.788Z" fill="#FAFAFA"/>
<path d="M231.505 134.702C230.808 135.002 230.19 135.409 229.686 135.9C229.228 136.317 228.86 136.793 228.599 137.309C228.336 137.791 228.177 138.306 228.125 138.831C228.066 139.363 228.066 139.898 228.125 140.43C228.136 140.832 228.183 141.233 228.266 141.63L228.549 143.191C228.549 143.724 228.761 144.238 228.903 144.733C229.045 145.228 229.115 145.627 229.186 145.894C229.319 146.346 229.525 146.781 229.8 147.189C230.01 147.539 230.337 147.836 230.745 148.046C231.176 148.258 231.684 148.345 232.186 148.294C232.869 148.233 233.524 148.045 234.1 147.742C234.675 147.48 235.207 147.16 235.683 146.791C236.169 146.437 236.577 146.019 236.888 145.554C237.222 145.081 237.453 144.566 237.574 144.031C237.694 143.432 237.694 142.822 237.575 142.223L234.786 143.516C234.688 143.567 234.573 143.594 234.456 143.594C234.338 143.594 234.224 143.567 234.125 143.516C234.011 143.468 233.915 143.397 233.845 143.311C233.774 143.224 233.733 143.124 233.723 143.021L233.039 139.575C232.993 139.322 233.043 139.063 233.181 138.833C233.306 138.606 233.512 138.414 233.772 138.281L241.783 134.477C241.886 134.427 242.005 134.4 242.126 134.4C242.246 134.4 242.365 134.427 242.468 134.477C242.575 134.53 242.664 134.603 242.73 134.689C242.796 134.775 242.835 134.872 242.846 134.972L243.671 139.141C243.978 140.507 243.978 141.906 243.67 143.272C243.369 144.6 242.819 145.884 242.038 147.079C240.468 149.458 238.102 151.436 235.208 152.787C233.868 153.45 232.372 153.884 230.813 154.061C229.599 154.194 228.363 154.048 227.246 153.641C226.177 153.214 225.277 152.554 224.648 151.736C223.924 150.803 223.42 149.771 223.16 148.69C222.948 147.833 222.736 146.882 222.547 145.854C222.359 144.826 222.17 143.855 222.028 142.903C221.842 141.636 221.882 140.354 222.148 139.096C222.426 137.778 222.927 136.497 223.638 135.289C224.371 134.048 225.327 132.9 226.474 131.883C227.659 130.818 229.047 129.913 230.586 129.2C231.902 128.553 233.363 128.12 234.886 127.926C236.059 127.8 237.251 127.879 238.383 128.156C239.291 128.433 240.102 128.884 240.745 129.47C241.352 130.011 241.782 130.666 241.997 131.374C242.087 131.571 242.087 131.787 241.997 131.983C241.897 132.175 241.723 132.335 241.5 132.44L237.105 134.475C236.977 134.537 236.829 134.57 236.68 134.57C236.53 134.57 236.383 134.537 236.254 134.475L235.593 134.151C235.173 133.878 234.665 133.706 234.128 133.656C233.129 133.745 232.2 134.115 231.505 134.702V134.702Z" fill="#FAFAFA"/>
<path d="M256.106 117.939C257.347 117.329 258.693 116.868 260.1 116.57C261.15 116.331 262.262 116.332 263.313 116.571C264.288 116.824 265.124 117.342 265.675 118.038C266.368 118.954 266.803 119.98 266.95 121.046C267.293 122.507 267.234 124.012 266.776 125.452C266.319 126.893 265.473 128.235 264.3 129.383L269.945 135.305C270.03 135.402 270.086 135.512 270.11 135.629C270.151 135.837 270.109 136.05 269.992 136.238C269.908 136.426 269.739 136.583 269.519 136.676L265.03 138.768C264.581 138.977 264.25 139.034 264.037 138.92C263.819 138.824 263.626 138.695 263.47 138.539L258.416 133.264L255.368 134.691L256.736 141.659C256.782 141.912 256.732 142.171 256.594 142.401C256.485 142.63 256.285 142.824 256.026 142.953L251.678 144.969C251.575 145.019 251.457 145.046 251.336 145.046C251.215 145.046 251.097 145.019 250.993 144.969C250.884 144.918 250.792 144.846 250.726 144.76C250.66 144.673 250.622 144.575 250.616 144.474L246.323 123.399C246.278 123.146 246.328 122.888 246.465 122.657C246.581 122.431 246.779 122.239 247.032 122.105L256.106 117.939ZM254.306 129.551L258.04 127.82C258.908 127.422 259.658 126.876 260.238 126.222C260.516 125.883 260.707 125.504 260.801 125.105C260.894 124.706 260.888 124.296 260.782 123.899C260.593 122.986 260.168 122.51 259.507 122.433C258.667 122.413 257.841 122.606 257.144 122.984L253.41 124.734L254.306 129.551Z" fill="#FAFAFA"/>
<path d="M290.954 120.941C291.059 120.894 291.177 120.87 291.297 120.87C291.416 120.87 291.534 120.894 291.639 120.941C291.746 120.994 291.835 121.066 291.901 121.152C291.966 121.238 292.006 121.335 292.017 121.436L292.701 124.901C292.747 125.154 292.698 125.413 292.559 125.643C292.449 125.877 292.239 126.073 291.968 126.195L276.278 133.404C276.173 133.451 276.055 133.475 275.935 133.475C275.815 133.475 275.697 133.45 275.593 133.404C275.483 133.353 275.392 133.281 275.326 133.195C275.26 133.108 275.221 133.01 275.215 132.909L271.088 111.853C271.044 111.6 271.094 111.342 271.23 111.111C271.346 110.885 271.543 110.693 271.797 110.559L287.227 103.388C287.332 103.342 287.45 103.317 287.57 103.317C287.69 103.317 287.808 103.342 287.912 103.388C288.022 103.446 288.114 103.521 288.183 103.61C288.253 103.699 288.297 103.798 288.314 103.902L288.974 107.348C289.02 107.602 288.971 107.86 288.832 108.091C288.716 108.316 288.518 108.508 288.265 108.642L278.057 113.379L278.741 116.901L288.193 112.507C288.296 112.456 288.414 112.43 288.535 112.43C288.656 112.43 288.775 112.456 288.878 112.507C288.984 112.56 289.074 112.632 289.14 112.718C289.205 112.804 289.245 112.901 289.256 113.002L289.94 116.467C289.983 116.72 289.934 116.978 289.798 117.209C289.681 117.435 289.484 117.627 289.23 117.761L279.778 122.155L280.486 125.81L290.954 120.941Z" fill="#FAFAFA"/>
<path d="M302.398 96.0647C303.63 95.4588 304.993 95.0459 306.415 94.8478C307.532 94.7055 308.675 94.7513 309.77 94.9822C310.668 95.1893 311.483 95.5836 312.132 96.1252C312.765 96.6463 313.185 97.3106 313.336 98.0292C313.367 98.2372 313.326 98.4479 313.218 98.6384C313.134 98.8212 312.976 98.9755 312.769 99.076L308.515 101.054C308.297 101.158 308.048 101.213 307.795 101.213C307.541 101.213 307.292 101.158 307.074 101.054L306.696 100.863C306.474 100.773 306.234 100.715 305.987 100.692C305.636 100.637 305.275 100.636 304.924 100.691C304.396 100.786 303.893 100.954 303.436 101.186C303.011 101.372 302.608 101.589 302.23 101.833C301.875 102.044 301.55 102.286 301.261 102.556C300.988 102.809 300.772 103.098 300.623 103.412C300.478 103.708 300.437 104.031 300.505 104.345C300.52 104.479 300.57 104.609 300.651 104.728C300.733 104.846 300.844 104.949 300.977 105.03C301.349 105.16 301.762 105.193 302.158 105.126C302.865 105.055 303.562 104.928 304.238 104.746C305.088 104.556 306.152 104.29 307.404 103.947C308.488 103.649 309.616 103.464 310.759 103.397C311.63 103.328 312.508 103.44 313.31 103.721C314.05 104.002 314.655 104.47 315.035 105.054C315.546 105.81 315.874 106.637 316.002 107.491C316.231 108.599 316.174 109.733 315.836 110.822C315.485 111.961 314.91 113.047 314.134 114.039C313.306 115.118 312.305 116.103 311.156 116.969C309.952 117.892 308.61 118.691 307.162 119.347C305.867 119.985 304.444 120.436 302.956 120.678C301.805 120.891 300.61 120.89 299.459 120.677C298.494 120.475 297.619 120.059 296.932 119.477C296.266 118.9 295.822 118.179 295.657 117.402C295.633 117.207 295.67 117.011 295.765 116.832C295.86 116.652 296.01 116.495 296.201 116.374L300.667 114.377C300.89 114.249 301.15 114.171 301.423 114.149C301.626 114.145 301.827 114.178 302.013 114.244L302.486 114.473C302.742 114.601 303.021 114.697 303.313 114.758C303.719 114.816 304.135 114.816 304.541 114.759C305.152 114.67 305.737 114.489 306.266 114.226C307.32 113.758 308.283 113.168 309.125 112.476C309.457 112.241 309.713 111.946 309.873 111.615C310.034 111.284 310.094 110.926 310.048 110.573C310.032 110.434 309.965 110.301 309.856 110.193C309.746 110.084 309.599 110.004 309.434 109.963C308.974 109.885 308.499 109.885 308.04 109.963C307.237 110.078 306.447 110.243 305.677 110.457L302.392 111.274C301.533 111.581 300.603 111.739 299.663 111.739C298.724 111.739 297.794 111.58 296.935 111.273C296.224 110.812 295.645 110.234 295.238 109.576C294.83 108.919 294.604 108.199 294.574 107.464C294.352 106.476 294.352 105.464 294.575 104.476C294.862 103.39 295.348 102.344 296.017 101.373C296.724 100.301 297.615 99.3148 298.664 98.4429C299.767 97.5152 301.023 96.7149 302.398 96.0647V96.0647Z" fill="#FAFAFA"/>
<path d="M326.383 84.9179C327.613 84.3269 328.966 83.9211 330.376 83.7201C331.508 83.5936 332.66 83.6654 333.755 83.9307C334.653 84.1378 335.468 84.5321 336.117 85.0737C336.752 85.5905 337.166 86.2578 337.297 86.9777C337.377 87.1757 337.377 87.3889 337.297 87.5869C337.214 87.7642 337.065 87.9169 336.872 88.0245L332.524 90.0408C332.3 90.1639 332.038 90.2362 331.768 90.2499C331.54 90.2469 331.315 90.208 331.106 90.1355L330.728 89.964C330.511 89.8612 330.27 89.7962 330.02 89.7734C329.66 89.7182 329.292 89.7181 328.933 89.773C328.407 89.873 327.904 90.0399 327.444 90.2674C327.036 90.4654 326.641 90.6814 326.262 90.9143C325.907 91.1256 325.582 91.368 325.294 91.6372C325.02 91.8903 324.804 92.1802 324.655 92.4937C324.509 92.7964 324.468 93.1254 324.537 93.4454C324.549 93.5778 324.598 93.7062 324.68 93.8215C324.762 93.9368 324.874 94.036 325.009 94.1119C325.381 94.2413 325.794 94.2747 326.19 94.2074C326.887 94.1349 327.575 94.0141 328.246 93.8465L331.436 93.0481C332.522 92.7519 333.649 92.5606 334.791 92.4782C335.654 92.4099 336.525 92.5216 337.319 92.8027C338.061 93.0886 338.672 93.5549 339.067 94.1358C339.578 94.8915 339.906 95.7185 340.035 96.5728C340.252 97.6813 340.195 98.8133 339.868 99.9041C339.497 101.037 338.923 102.12 338.166 103.121C337.331 104.195 336.33 105.18 335.188 106.051C333.978 106.973 332.637 107.778 331.194 108.448C329.887 109.076 328.457 109.52 326.965 109.76C325.814 109.972 324.619 109.971 323.468 109.759C322.509 109.556 321.635 109.148 320.94 108.578C320.273 107.993 319.83 107.266 319.665 106.483C319.637 106.282 319.678 106.077 319.784 105.893C319.867 105.711 320.026 105.556 320.233 105.456L324.557 103.439C324.782 103.315 325.042 103.236 325.313 103.211C325.516 103.206 325.719 103.239 325.904 103.307C326.077 103.378 326.243 103.461 326.4 103.554C327.019 103.848 327.75 103.95 328.455 103.84C329.064 103.735 329.647 103.548 330.18 103.289C331.23 102.815 332.192 102.226 333.04 101.539C333.374 101.307 333.632 101.012 333.789 100.679C333.946 100.347 333.997 99.9879 333.938 99.6354C333.928 99.4952 333.867 99.3605 333.762 99.2485C333.657 99.1365 333.512 99.0525 333.347 99.0071C332.88 98.9289 332.398 98.9288 331.93 99.0066C331.13 99.1305 330.341 99.2955 329.567 99.5006L326.283 100.318C325.423 100.625 324.494 100.783 323.554 100.783C322.614 100.782 321.684 100.623 320.825 100.316C320.108 99.8601 319.525 99.2824 319.117 98.6243C318.709 97.9661 318.486 97.2435 318.464 96.508C318.281 95.5205 318.321 94.5144 318.583 93.5385C318.862 92.4472 319.34 91.3953 320.002 90.4171C320.731 89.3516 321.629 88.3665 322.672 87.4865C323.747 86.4886 324.997 85.6232 326.383 84.9179Z" fill="#FAFAFA"/>
</svg>
